<svg width="15" height="15" viewBox="0 0 15 15" fill="none" xmlns="http://www.w3.org/2000/svg">
<path d="M12.3499 13.1854C10.9384 14.5969 7.32377 13.2706 4.27632 10.2232C1.22887 7.17574 -0.0973728 3.56109 1.31408 2.14963L2.24341 1.2203C2.88498 0.578729 3.94213 0.595688 4.60462 1.25818L6.04407 2.69763C6.70656 3.36012 6.72352 4.41727 6.08195 5.05884L5.88234 5.25845C5.53595 5.60484 5.50206 6.16364 5.82392 6.55368C6.13438 6.9299 6.46908 7.30463 6.83198 7.66753C7.19488 8.03043 7.56961 8.36514 7.94583 8.67559C8.33587 8.99746 8.89467 8.96357 9.24106 8.61717L9.44067 8.41756C10.0822 7.77599 11.1394 7.79295 11.8019 8.45544L13.2413 9.8949C13.9038 10.5574 13.9208 11.6145 13.2792 12.2561L12.3499 13.1854Z" fill="black" stroke="black" stroke-width="1.5"/>
</svg>
