<svg width="24" height="24" viewBox="0 0 24 24" fill="none" xmlns="http://www.w3.org/2000/svg">
<path d="M23.9729 9.84815C23.9533 9.81979 23.9397 9.78775 23.9329 9.75397C23.9329 9.68805 23.9329 9.62213 23.9329 9.55621C23.9364 9.52098 23.9364 9.48549 23.9329 9.45027C23.919 9.32731 23.8969 9.20541 23.867 9.08534C23.761 8.64038 23.6315 8.19776 23.5397 7.75044C23.5308 7.68566 23.5134 7.62234 23.4879 7.5621C23.2139 6.76386 22.8932 5.98244 22.5274 5.2219C22.3408 4.75947 22.0808 4.33017 21.7575 3.95056C21.2678 3.44438 20.7875 2.92878 20.2931 2.42496C19.4484 1.60191 18.4334 0.974236 17.3196 0.586227C16.1283 0.13655 14.8593 0.0353149 13.5927 0.00941731C12.5898 -0.0117716 11.5868 0.00941731 10.5815 0.00941731C9.81776 0.00572364 9.05923 0.135597 8.3402 0.393172C7.51854 0.663919 6.69217 0.937022 5.88229 1.23838C4.90141 1.57516 3.96161 2.02137 3.08065 2.56857C2.36022 3.03943 1.88229 3.69394 1.41378 4.3814C1.38543 4.42474 1.3625 4.47139 1.34551 4.52031C1.16869 4.99816 1.01855 5.48547 0.895824 5.97999C0.829303 6.31358 0.746011 6.6436 0.646266 6.96881C0.48679 7.44067 0.353177 7.92088 0.246027 8.4073C0.0689859 9.11835 -0.010222 9.85023 0.0105948 10.5827C0.027075 10.917 0.0105948 11.2513 0.0105948 11.5856C-0.0213909 12.0303 0.0191645 12.4772 0.130668 12.9088C0.153489 13.0242 0.159834 13.1423 0.149506 13.2596C0.161278 14.1566 0.0977089 15.0536 0.264866 15.9435C0.361393 16.4638 0.394359 16.9982 0.622728 17.4879C0.807039 17.8942 1.01863 18.2874 1.25604 18.6651C1.56008 19.1297 1.88776 19.5784 2.23779 20.0094C2.76259 20.7046 3.41351 21.2948 4.15657 21.7493C4.86287 22.1542 5.54562 22.5756 6.25427 22.9665C7.19402 23.4807 8.22172 23.8145 9.28429 23.9506C9.49618 23.9788 9.71043 23.9647 9.91996 24H14.1577C14.1676 23.9922 14.179 23.9865 14.1911 23.9833C14.2033 23.98 14.2159 23.9793 14.2284 23.9812C14.8266 23.9589 15.4197 23.8625 15.9941 23.6939C16.3226 23.5855 16.6422 23.4517 16.95 23.2937C17.5904 23.0065 18.2566 22.7781 18.8852 22.4532C19.5417 22.1227 20.0965 21.6208 20.4909 21.0006C21.0936 20.0424 21.7599 19.1313 22.3414 18.1613C22.7719 17.4294 23.1412 16.6632 23.4456 15.8705C23.5125 15.672 23.5652 15.469 23.6033 15.2631C23.703 14.704 23.7698 14.1396 23.8034 13.5727C23.8364 12.9818 23.9117 12.3955 23.9282 11.8046C23.9282 11.8046 23.9282 11.7858 23.9282 11.7763C23.9282 11.6939 23.9282 11.6115 23.9282 11.5268V11.4114C23.9292 11.3779 23.9426 11.346 23.9659 11.322L23.9729 9.84815Z" fill="#FFD561"/>
<path d="M12.9952 7.15718C12.5944 7.17024 12.1948 7.1063 11.8181 6.96883C11.7407 6.94149 11.6714 6.89533 11.6163 6.8345C11.5612 6.77367 11.5221 6.70009 11.5026 6.62039C11.3832 6.24212 11.3043 5.85226 11.2672 5.45735C11.2224 5.09949 11.4838 4.81227 11.9287 4.75105C12.3569 4.69082 12.792 4.70195 13.2165 4.78401C13.6874 4.87819 14.1724 5.41968 14.1112 5.91644C14.0947 6.06477 14.1112 6.2178 14.09 6.36612C14.0885 6.47268 14.0659 6.57789 14.0236 6.67572C13.9814 6.77355 13.9202 6.86208 13.8437 6.93622C13.7671 7.01037 13.6767 7.06867 13.5775 7.1078C13.4784 7.14693 13.3725 7.16611 13.266 7.16424C13.1624 7.16424 13.0588 7.15718 12.9952 7.15718Z" fill="white"/>
<path d="M8.02041 7.82815C7.77371 7.85106 7.52496 7.82137 7.29058 7.74104C7.15301 7.67861 7.0373 7.57638 6.95841 7.44754C6.87951 7.3187 6.84104 7.16918 6.84796 7.01827C6.85282 6.67351 6.87639 6.32927 6.91859 5.98707C6.91932 5.96182 6.92638 5.93716 6.93914 5.91536C6.95189 5.89355 6.96992 5.87531 6.99157 5.86229C7.44897 5.57927 7.99455 5.47451 8.52424 5.568C8.71995 5.57429 8.91204 5.62252 9.0875 5.70944C9.26297 5.79636 9.41772 5.91994 9.54131 6.07183C9.58487 6.11206 9.61315 6.16613 9.62135 6.22486C9.65421 6.42631 9.64303 6.63249 9.58857 6.8292C9.53411 7.02591 9.43767 7.20849 9.30588 7.36435C9.1461 7.54118 8.94526 7.67597 8.72109 7.75686C8.49692 7.83774 8.25628 7.86223 8.02041 7.82815V7.82815Z" fill="white"/>
<path d="M8.09766 12.3179C8.22059 12.2017 8.31142 12.0557 8.36134 11.8941C8.38308 11.8247 8.42795 11.7649 8.48847 11.7246C8.80395 11.508 9.06293 11.2184 9.39489 11.0183C9.6657 10.8589 9.97532 10.7774 10.2895 10.7829C10.4379 10.7829 10.5885 10.7829 10.7392 10.7829C10.9543 10.7708 11.1691 10.8129 11.3637 10.9055C11.5583 10.998 11.7265 11.138 11.8528 11.3126C11.9399 11.4162 12.0082 11.4609 12.1071 11.3314C12.1384 11.2978 12.176 11.2706 12.2177 11.2514C12.5402 11.084 12.8728 10.937 13.2136 10.8111C13.6094 10.701 14.0231 10.6705 14.4308 10.7217C14.6806 10.7548 14.9261 10.8148 15.163 10.9006C14.8901 11.392 14.5044 11.8116 14.0376 12.1248C13.4281 12.571 12.7497 12.9146 12.0294 13.1419C11.8851 13.1814 11.7363 13.2019 11.5868 13.2031C11.4173 13.2031 11.2477 13.2031 11.0806 13.2031C10.4821 13.2208 9.88499 13.1364 9.31484 12.9536C9.23219 12.9362 9.15275 12.906 9.07941 12.8641C8.76157 12.6758 8.43197 12.4992 8.09766 12.3179Z" fill="#E06C4F"/>
<path d="M12.1589 5.7116C12.1731 5.55621 12.1895 5.40083 12.1943 5.24073C12.199 5.08064 12.272 5.05945 12.3944 5.05945C12.4398 5.06298 12.4855 5.06298 12.5309 5.05945C13.103 5.0053 13.2608 5.25015 13.3808 5.75162C13.4243 5.99642 13.4098 6.24799 13.3385 6.48617C13.3276 6.53699 13.3002 6.58279 13.2606 6.61644C13.221 6.65008 13.1714 6.66967 13.1195 6.67216C12.88 6.69851 12.6378 6.68819 12.4014 6.64156C12.3572 6.63226 12.3166 6.61045 12.2845 6.57873C12.2524 6.547 12.23 6.5067 12.2202 6.46263C12.1593 6.21724 12.1386 5.96361 12.1589 5.7116Z" fill="#292929"/>
<path d="M8.79249 6.64864C8.78072 6.78519 8.77366 6.90055 8.76188 7.01826C8.73834 7.3102 8.60885 7.43027 8.3075 7.43498C8.15682 7.43498 8.00849 7.43498 7.85782 7.42321C7.79346 7.4274 7.72892 7.41833 7.66821 7.39655C7.6075 7.37477 7.55192 7.34075 7.5049 7.2966C7.45788 7.25245 7.42044 7.19912 7.39488 7.1399C7.36933 7.08068 7.35621 7.01684 7.35634 6.95234C7.32925 6.67365 7.34594 6.39244 7.40579 6.11891C7.41767 6.04663 7.45415 5.98068 7.50906 5.9322C7.56398 5.88372 7.63394 5.8557 7.70714 5.85287C7.94247 5.82649 8.18038 5.83442 8.41343 5.87642C8.50177 5.88968 8.58315 5.93211 8.64458 5.99696C8.70602 6.06181 8.74399 6.14535 8.75246 6.23427C8.78306 6.38024 8.78307 6.52386 8.79249 6.64864Z" fill="#292929"/>
<path d="M16.3969 8.525C16.3969 8.35314 16.3333 8.28957 16.1615 8.28957C15.5432 8.27416 14.9247 8.30485 14.311 8.38139C13.1785 8.47556 12.0485 8.59799 10.9255 8.7675C10.405 8.84067 9.88928 8.94444 9.38102 9.07827C9.25624 9.10417 9.1291 9.12535 9.00196 9.15361C8.51818 9.23581 8.04069 9.35145 7.5729 9.49969V9.49969C7.43295 9.52594 7.29577 9.56535 7.16323 9.61741C6.6288 9.76102 6.15795 10.0694 5.62822 10.2248C5.56466 10.2437 5.57172 10.2884 5.58349 10.3496C5.75714 11.0855 6.21174 11.7243 6.85012 12.1295C7.23387 12.3885 7.68826 12.5226 8.0673 12.7887C8.61586 13.1724 9.26565 13.2596 9.88955 13.3608C10.5134 13.462 11.1114 13.3961 11.7236 13.3961C12.0361 13.4064 12.3484 13.3675 12.6488 13.2807C13.6281 12.9751 14.5288 12.4593 15.288 11.7693C15.6863 11.3812 15.9942 10.9102 16.1897 10.3896C16.4393 9.78692 16.3898 9.15361 16.3969 8.525ZM15.1209 10.8534C15.0435 11.0036 14.9512 11.1456 14.8454 11.2772C14.4036 11.8009 13.8628 12.2321 13.2539 12.5462C12.5476 12.9299 11.8224 13.2337 10.9914 13.1489C10.8941 13.143 10.7967 13.143 10.6994 13.1489C10.1556 13.1489 9.65412 12.9606 9.13852 12.8287C9.08284 12.811 9.03095 12.783 8.9855 12.7463C8.7155 12.5624 8.42853 12.4047 8.12852 12.2754L7.9543 12.1883C7.31519 11.8824 6.81199 11.3507 6.5417 10.6957C6.4287 10.4249 6.46165 10.3755 6.73005 10.2507C7.69061 9.79869 8.73122 9.5868 9.75535 9.33489C10.8405 9.08057 11.9418 8.90044 13.0514 8.79575C13.8119 8.7157 14.577 8.64978 15.3398 8.57444L15.1209 10.8534Z" fill="#292929"/>
</svg>
