<svg width="24" height="25" viewBox="0 0 24 25" fill="none" xmlns="http://www.w3.org/2000/svg">
<path d="M23.9993 11.051C23.9993 12.0948 23.9686 13.1387 23.8815 14.1802C23.8349 14.7191 23.716 15.2493 23.528 15.7565C23.2234 16.5707 22.853 17.3587 22.4206 18.1128C22.0954 18.676 21.7137 19.2132 21.3791 19.7622C21.1741 20.0944 21.0233 20.4691 20.7924 20.7778C20.1678 21.6006 19.3171 22.2236 18.3442 22.5709C17.9207 22.7456 17.5076 22.9447 17.1071 23.167C16.4921 23.4993 15.8135 23.6077 15.149 23.7655C14.5181 23.8754 13.8784 23.9267 13.2381 23.9187C12.4629 23.9517 11.6853 24.0035 10.9077 24.02C10.288 24.0203 9.66989 23.958 9.06274 23.8339C8.12473 23.6578 7.21899 23.34 6.37658 22.8914C5.70033 22.5356 5.017 22.1845 4.35252 21.8098C3.47834 21.3126 2.828 20.5681 2.19887 19.8023C1.80467 19.3241 1.44483 18.8186 1.12204 18.2895C0.763886 17.7052 0.65079 17.0548 0.509413 16.4045C0.273784 15.2664 0.356249 14.1071 0.151252 12.9643C-0.127222 11.2155 -0.0202621 9.42704 0.464643 7.72392C0.591882 7.25266 0.67671 6.75784 0.789812 6.2748C0.880833 5.76567 1.02456 5.26738 1.21866 4.78798C1.24985 4.71629 1.29375 4.65083 1.34825 4.59477C1.60273 4.345 1.70876 3.99862 1.9491 3.73236C2.36789 3.30976 2.83444 2.93731 3.33932 2.62255C3.87352 2.28044 4.44214 1.99534 5.03585 1.77193C6.01607 1.35487 7.01042 0.970792 8.01185 0.607923C8.94011 0.27103 9.91798 0.091061 10.9054 0.0754012C11.5981 0.0754012 12.2909 0.0188503 12.9836 0C13.7015 0.000787898 14.4186 0.0488029 15.1302 0.143734C15.6049 0.186661 16.0769 0.255884 16.544 0.351087C17.2108 0.49482 17.8022 0.822345 18.4125 1.10746C19.2348 1.49153 19.8522 2.13244 20.5332 2.6956C21.7231 3.67346 22.4182 4.95763 23.0167 6.329C23.3531 7.14935 23.6357 7.99076 23.8626 8.84787C23.9969 9.31913 23.9545 9.79039 23.9922 10.2475C24.0181 10.5138 23.9993 10.7824 23.9993 11.051Z" fill="#FFD561"/>
<path d="M11.6427 11.527C10.5047 11.4431 9.38929 11.1666 8.34389 10.7093C8.08966 10.5874 7.8689 10.4054 7.70063 10.1792C7.35377 9.76831 7.13068 9.26742 7.05735 8.73476C7.02672 8.48263 7.02436 8.48263 7.29298 8.44965C7.33115 8.44262 7.36972 8.4379 7.40845 8.43551C7.77839 8.43551 7.78781 8.38131 7.84908 8.78895C7.95282 9.44778 8.30324 10.0425 8.82929 10.4525C8.89205 10.4995 8.96005 10.539 9.03192 10.5703C9.91299 10.9659 10.8517 11.2181 11.8124 11.3173C12.6044 11.3994 13.4028 11.2427 14.105 10.8672C14.6384 10.5697 15.0845 10.1374 15.3986 9.61365C15.6677 9.19724 15.8808 8.74726 16.0325 8.27528C16.0408 8.23351 16.0635 8.19598 16.0966 8.16927C16.1298 8.14257 16.1713 8.12838 16.2139 8.12919L16.664 8.10327C16.8006 8.10327 16.836 8.1504 16.7912 8.28235C16.505 9.20028 15.9631 10.0176 15.229 10.6386C14.7543 10.9878 14.2091 11.2291 13.6314 11.3455C12.9788 11.4899 12.3106 11.5508 11.6427 11.527V11.527Z" fill="#292929"/>
<path d="M3.04464 7.35396C2.91269 5.97789 5.08991 6.31013 5.52111 7.18431C5.75674 7.65557 5.54938 8.25642 5.10404 8.59808C4.8197 8.78845 4.47197 8.85956 4.13572 8.7961C3.79947 8.73264 3.50159 8.53969 3.30619 8.25878C3.13418 7.98074 2.96924 7.70269 3.04464 7.35396Z" fill="#D6674C"/>
<path d="M20.5992 8.37189C20.4837 8.89263 20.2881 9.37332 19.8216 9.6867C19.4516 9.92233 19.0841 9.75739 18.7188 9.64193C18.7015 9.63603 18.6849 9.62812 18.6694 9.61837C17.9978 9.26493 17.9813 9.03872 18.1769 8.36954C18.2423 8.10967 18.3893 7.87762 18.5963 7.70742C18.7289 7.5822 18.8901 7.49122 19.0658 7.44236C19.2416 7.3935 19.4266 7.38823 19.6048 7.42702C19.7852 7.45832 19.9575 7.5253 20.1116 7.62402C20.2658 7.72274 20.3987 7.85123 20.5025 8.00196C20.5775 8.10997 20.6117 8.24104 20.5992 8.37189V8.37189Z" fill="#D6674C"/>
<path d="M15.5046 4.55235C15.7857 4.55422 16.0585 4.64705 16.2824 4.81696C16.5062 4.98686 16.669 5.2247 16.7464 5.49487C16.8657 5.90094 16.9633 6.31309 17.0386 6.72956C17.0763 6.88508 17.0056 6.9487 16.8595 6.96519C16.7935 6.96519 16.7299 6.98404 16.6639 6.98404C16.5495 7.00544 16.432 7.00544 16.3176 6.98404C16.188 6.9322 16.3034 6.79318 16.2704 6.69186C16.1385 6.27009 16.1102 5.81768 15.9288 5.41004C15.8076 5.15471 15.6077 4.94495 15.3585 4.81154C15.2454 4.74792 15.17 4.81154 15.0829 4.87516C14.673 5.26327 14.3696 5.75005 14.2016 6.28894C14.1191 6.50807 14.0414 6.72721 13.9495 6.94399C13.9377 6.97226 13.9236 7.01703 13.9 7.0241C13.6805 7.08443 13.4504 7.09569 13.2261 7.05709C13.1672 7.05709 13.1531 6.98404 13.1837 6.92985C13.3863 6.5552 13.4735 6.13342 13.6549 5.7517C13.8316 5.40081 14.0712 5.08533 14.3618 4.82097C14.4569 4.73076 14.5752 4.66875 14.7035 4.64189C14.9651 4.57502 15.2347 4.54489 15.5046 4.55235V4.55235Z" fill="#292929"/>
<path d="M10.236 7.11835C9.9768 7.11835 9.9768 7.11835 9.96973 6.85209C9.97658 6.38741 9.87999 5.92703 9.68697 5.50429C9.58272 5.31394 9.42339 5.15953 9.22985 5.06131C9.14617 5.01425 9.04875 4.99769 8.95422 5.01445C8.85968 5.0312 8.77388 5.08025 8.71147 5.1532C8.3633 5.47524 8.10298 5.88073 7.95509 6.33135C7.85377 6.64709 7.76189 6.96519 7.67235 7.27386C7.66695 7.29922 7.65299 7.32195 7.63283 7.33825C7.61267 7.35455 7.58752 7.36343 7.5616 7.3634C7.38487 7.3634 7.21051 7.38696 7.03379 7.38932C6.91362 7.38932 6.86414 7.32099 6.90656 7.20789C7.08092 6.75312 7.1681 6.26537 7.40845 5.83181C7.57079 5.54784 7.77944 5.29299 8.02579 5.0778C8.17752 4.95298 8.36281 4.87591 8.5583 4.85631C8.91767 4.78917 9.28593 4.78439 9.64692 4.84217C9.83429 4.87413 10.0104 4.95347 10.1584 5.07266C10.3065 5.19185 10.4216 5.34692 10.4928 5.52314C10.6697 5.97309 10.7562 6.45351 10.7473 6.93691C10.7473 7.03823 10.7002 7.07593 10.6059 7.08065L10.236 7.11835Z" fill="#292929"/>
</svg>
