<svg width="24" height="24" viewBox="0 0 24 24" fill="none" xmlns="http://www.w3.org/2000/svg">
<path d="M23.8655 10.6798C23.9197 11.177 23.8066 11.6222 23.9221 12.0251C24.0799 12.5976 23.9221 13.156 23.8985 13.7167C23.875 14.2374 23.7689 14.751 23.7124 15.2717C23.624 15.7727 23.4908 16.2647 23.3143 16.7418C23.1711 17.2047 22.9301 17.6314 22.6075 17.9928C22.3035 18.3509 21.9619 18.6737 21.6933 19.0601C21.5129 19.3498 21.3163 19.629 21.1043 19.8965C20.6543 20.4067 20.1582 20.8744 19.6224 21.2936C18.8722 21.8861 18.0766 22.4186 17.2428 22.8862C16.2428 23.4892 15.1104 23.8386 13.9445 23.904C13.5487 23.9182 13.1552 23.9794 12.7665 23.9983C12.4336 24.0084 12.1009 23.9743 11.777 23.897C11.37 23.8088 10.9539 23.7709 10.5377 23.7839C9.99227 23.8063 9.44836 23.7115 8.94269 23.5059C8.62208 23.4153 8.291 23.367 7.95787 23.3621C7.1439 23.3007 6.35525 23.0515 5.65373 22.6341C5.22258 22.3538 4.85269 21.991 4.44746 21.6776C4.2849 21.5527 4.11761 21.442 3.95976 21.3007C3.11395 20.5939 2.62862 19.6515 2.22103 18.6761C2.1558 18.547 2.07681 18.4254 1.98543 18.3133C1.46485 17.5972 1.09533 16.7828 0.899323 15.9196C0.800004 15.5322 0.681266 15.15 0.543566 14.7745C0.296254 13.9883 0.123503 13.1806 0.0276026 12.362C-0.0295574 11.7128 0.00215414 11.0589 0.121848 10.4183C0.15637 9.92251 0.248071 9.43235 0.395137 8.9576C0.892252 7.71128 1.39408 6.47439 2.25638 5.42361C2.79826 4.75687 3.30245 4.05478 3.88909 3.42573C4.3911 2.86354 4.9905 2.39663 5.65845 2.04747C5.89405 1.92496 6.12965 1.77889 6.36525 1.63517C6.64652 1.4564 6.95089 1.31689 7.26994 1.22052C7.57113 1.12898 7.85994 1.00079 8.12988 0.838847C8.6081 0.563416 9.14345 0.402159 9.69424 0.367648C10.2333 0.302332 10.767 0.1992 11.2916 0.0590135C11.6296 -0.0136685 11.9786 -0.0192699 12.3188 0.0425234C12.7776 0.128682 13.246 0.152454 13.7112 0.1132C14.6136 0.0603497 15.5182 0.163971 16.3853 0.41948C16.8442 0.537357 17.292 0.69502 17.7235 0.890679C18.251 1.16103 18.7289 1.51869 19.1371 1.94852C19.24 2.05343 19.3494 2.15179 19.4646 2.24302C19.8847 2.6072 20.2784 3.00086 20.6426 3.42102C21.2834 4.06656 21.7381 4.84875 22.2093 5.61445C22.6604 6.33514 23.0717 7.07996 23.4415 7.84557C23.4677 7.89764 23.489 7.95207 23.5051 8.00814C23.7336 8.90813 23.9857 9.80341 23.8655 10.6798Z" fill="#FFD561"/>
<path d="M6.45985 7.02618C6.45358 6.74524 6.49257 6.46512 6.57533 6.19657C6.60372 6.07791 6.6677 5.97075 6.75869 5.88946C6.84967 5.80816 6.96332 5.75661 7.08442 5.7417C7.48492 5.69028 7.8916 5.7175 8.28168 5.82184C8.41717 5.83738 8.54719 5.88431 8.66136 5.95891C8.77553 6.03351 8.87072 6.13372 8.93936 6.25156C9.00801 6.3694 9.0482 6.50163 9.05678 6.63774C9.06535 6.77385 9.04205 6.91008 8.98873 7.03561C8.8953 7.30229 8.75306 7.54925 8.56924 7.76387C8.48978 7.84654 8.39295 7.91056 8.28577 7.95132C8.17858 7.99207 8.06371 8.00854 7.94939 7.99955C7.5594 8.03502 7.16703 7.96501 6.81338 7.79686C6.69828 7.75801 6.60031 7.68031 6.53624 7.57711C6.47216 7.4739 6.44598 7.35161 6.46221 7.23122C6.46457 7.18409 6.45985 7.12517 6.45985 7.02618Z" fill="white"/>
<path d="M16.7174 6.14686C16.7211 6.04475 16.6958 5.94368 16.6446 5.85531C16.5933 5.76693 16.5181 5.69485 16.4276 5.64739C15.7043 5.30106 14.0316 4.99242 13.9868 6.25288C13.9816 6.35509 13.9682 6.45673 13.9467 6.5568C13.8713 6.97852 13.9467 7.1458 14.319 7.36491C14.6137 7.52076 14.9448 7.59479 15.2779 7.5793C15.4705 7.5964 15.6645 7.56799 15.8441 7.49638C16.0238 7.42476 16.1841 7.31194 16.3122 7.167C16.4516 7.038 16.5603 6.87941 16.6304 6.70288C16.7006 6.52635 16.7303 6.33636 16.7174 6.14686Z" fill="white"/>
<path d="M15.9546 7.651C15.7448 7.70992 15.6294 7.52609 15.4832 7.45774C15.0319 7.25748 14.6201 6.97812 14.2671 6.63285C14.0856 6.45844 14.0903 6.36652 14.2412 6.16148C14.3839 5.98557 14.5417 5.82234 14.7125 5.67361C14.906 5.51522 15.0745 5.32849 15.2122 5.11975C15.2343 5.07756 15.2686 5.04305 15.3107 5.02075C15.3527 4.99845 15.4006 4.98942 15.4479 4.99484C15.4785 4.99484 15.5115 4.99484 15.5422 4.99484C15.7054 4.97136 15.8719 4.98753 16.0277 5.04198C15.9455 5.17636 15.855 5.30545 15.7566 5.4285C15.5327 5.66419 15.2641 5.87866 15.0496 6.13555C14.8351 6.39245 14.8351 6.4443 15.0731 6.64227C15.4156 6.95098 15.8055 7.20246 16.228 7.38703C16.3105 7.42003 16.4637 7.43653 16.4307 7.55201C16.3977 7.6675 16.2822 7.62036 16.195 7.62979C16.1078 7.63922 16.03 7.64393 15.9546 7.651Z" fill="#292929"/>
<path d="M6.07764 5.77234C6.34575 5.67616 6.63963 5.68034 6.90489 5.78412C7.15544 5.92393 7.41352 6.04982 7.67794 6.16122C7.99965 6.30387 8.30147 6.48767 8.57588 6.708C8.71493 6.80228 8.67252 6.94369 8.59003 7.04503C8.3025 7.40327 8.00554 7.75208 7.71094 8.10796C7.62374 8.21402 7.49882 8.1881 7.38805 8.18574C7.27728 8.18338 7.02982 8.25173 6.97796 8.13153C6.92611 8.01133 7.0958 7.86521 7.20185 7.76622C7.42698 7.52906 7.6379 7.27879 7.8335 7.01675C7.92541 6.90833 7.90655 6.83056 7.79106 6.73157C7.39983 6.3969 6.90961 6.2602 6.46652 6.02452C6.32927 5.95285 6.19906 5.86841 6.07764 5.77234V5.77234Z" fill="#292929"/>
<path d="M12.7544 13.9216C12.4154 13.9352 12.077 13.8832 11.7578 13.7685C11.5896 13.7095 11.4396 13.6079 11.3224 13.4738C11.2051 13.3396 11.1246 13.1773 11.0887 13.0028C10.9748 12.4642 10.8961 11.9188 10.8531 11.3701C10.8333 10.82 10.8467 10.2693 10.8931 9.72088C10.8931 9.62428 10.9261 9.56538 11.0321 9.56067C11.7272 9.5324 12.4151 9.42638 13.1101 9.39575C13.5679 9.35151 14.0227 9.27992 14.4719 9.18135C14.8194 9.08684 15.1794 9.0471 15.5392 9.06355C15.7748 9.09418 15.8242 9.11774 15.8808 9.34156C15.9067 9.43506 15.9132 9.5329 15.8996 9.62899C15.8148 10.1143 15.8502 10.6114 15.7418 11.0921C15.6472 11.5924 15.4889 12.0786 15.2706 12.5386C15.0556 12.952 14.7543 13.3144 14.3871 13.6012C14.1586 13.7525 13.8948 13.8418 13.6214 13.8604C13.3346 13.9046 13.0446 13.9251 12.7544 13.9216Z" fill="#D6674C"/>
<path d="M15.9 8.6514C15.5555 8.62821 15.2096 8.64164 14.868 8.69146C14.4487 8.73622 14.0293 8.76449 13.6099 8.81868C12.8278 8.9247 12.0456 9.05428 11.254 9.15323C10.8746 9.20506 10.4906 9.22627 10.1136 9.28752C9.2749 9.42181 8.46445 9.6904 7.62572 9.81055C7.58095 9.81055 7.52439 9.8294 7.52204 9.87652C7.51968 9.92364 7.58093 9.95427 7.63276 9.95663C7.8682 9.98255 8.1061 9.97541 8.33956 9.93542C8.8249 9.82704 9.31024 9.72574 9.79322 9.60323C9.96992 9.55846 9.96286 9.61972 9.92281 9.74458C9.73181 10.4244 9.66632 11.1334 9.7296 11.8367C9.76494 12.5576 9.95343 13.2032 10.6202 13.6084C10.7248 13.6816 10.8255 13.7602 10.9218 13.844C11.0451 13.937 11.1938 13.9904 11.3482 13.9972C11.7063 14.0254 12.055 14.0136 12.4696 14.0184C12.9213 14.0297 13.3729 13.9941 13.8172 13.9123C14.663 13.7097 15.4241 13.3799 15.7586 12.4752C15.8547 12.2102 15.9203 11.9351 15.9541 11.6553C16.079 10.7129 16.0248 9.7705 16.0649 8.8281C16.0814 8.70324 16.0107 8.66083 15.9 8.6514ZM15.3133 8.96004C15.2615 9.94249 15.3345 10.9296 15.1696 11.9097C14.9953 12.9558 14.3474 13.5189 13.3673 13.7568C12.849 13.8433 12.3224 13.8686 11.7982 13.8322C11.7532 13.8311 11.7096 13.8163 11.6733 13.7898C11.3858 13.5862 11.1163 13.3584 10.8676 13.1089C10.5966 12.798 10.5589 12.4021 10.5095 12.0111C10.409 11.2081 10.4805 10.3929 10.7191 9.61972C10.7272 9.56189 10.7551 9.50867 10.7981 9.46914C10.8411 9.42961 10.8964 9.40622 10.9547 9.40297C11.4259 9.35585 11.8971 9.28516 12.3683 9.21684C12.4555 9.20271 12.4626 9.23333 12.4649 9.30166C12.4649 9.8082 12.5686 10.3077 12.5733 10.8142C12.5733 10.9744 12.5733 11.1346 12.5733 11.2854C12.5733 11.4362 12.6157 11.4904 12.7688 11.4951C13.3201 11.5163 13.3178 11.521 13.3201 10.9815C13.3174 10.4881 13.2828 9.9955 13.2165 9.50663C13.2082 9.42359 13.2082 9.33994 13.2165 9.2569C13.2177 9.20585 13.2388 9.15732 13.2754 9.12166C13.3119 9.086 13.361 9.06604 13.412 9.06606C13.9987 8.98831 14.59 8.89878 15.179 8.85402C15.2521 8.85638 15.3204 8.83753 15.3039 8.96004H15.3133Z" fill="#292929"/>
</svg>
