<svg width="39" height="39" viewBox="0 0 39 39" fill="none" xmlns="http://www.w3.org/2000/svg">
<g clip-path="url(#clip0_161_607)">
<path d="M39 19.5C39 8.7293 30.2707 0 19.5 0C8.7293 0 0 8.7293 0 19.5C0 29.2348 7.12969 37.3014 16.4531 38.7639V25.1367H11.502V19.5H16.4531V15.2039C16.4531 10.3175 19.3629 7.61719 23.8189 7.61719C25.9518 7.61719 28.1836 7.99805 28.1836 7.99805V12.7969H25.7232C23.301 12.7969 22.5469 14.3013 22.5469 15.8438V19.5H27.9551L27.0905 25.1367H22.5469V38.7639C31.8703 37.3014 39 29.2348 39 19.5Z" fill="black"/>
</g>
<defs>
<clipPath id="clip0_161_607">
<rect width="39" height="39" fill="white"/>
</clipPath>
</defs>
</svg>
