<svg width="39" height="39" viewBox="0 0 39 39" fill="none" xmlns="http://www.w3.org/2000/svg">
<path d="M19.5352 0.145996C8.78698 0.145996 0.0712891 9.00867 0.0712891 19.9422C0.0712891 28.6888 5.64829 36.1094 13.3819 38.7271C14.3546 38.9103 14.7118 38.2976 14.7118 37.7747C14.7118 37.3027 14.6937 35.7432 14.6853 34.089C9.27046 35.2866 8.12785 31.7533 8.12785 31.7533C7.24245 29.4651 5.96674 28.8567 5.96674 28.8567C4.20078 27.628 6.09985 27.6532 6.09985 27.6532C8.05436 27.7926 9.08351 29.6933 9.08351 29.6933C10.8195 32.7197 13.6368 31.8448 14.7475 31.3389C14.9222 30.0598 15.4267 29.1858 15.9833 28.6918C11.6601 28.1912 7.11546 26.4937 7.11546 18.9082C7.11546 16.7469 7.8758 14.9809 9.1209 13.5946C8.91881 13.0956 8.25259 11.0825 9.30945 8.35565C9.30945 8.35565 10.9439 7.82359 14.6634 10.3849C16.216 9.94624 17.8811 9.72627 19.5352 9.71873C21.1893 9.72627 22.8557 9.94624 24.4112 10.3849C28.1261 7.82359 29.7583 8.35565 29.7583 8.35565C30.8178 11.0825 30.1512 13.0956 29.9492 13.5946C31.1972 14.9809 31.9523 16.7469 31.9523 18.9082C31.9523 26.5117 27.399 28.1859 23.0649 28.676C23.763 29.2904 24.385 30.4951 24.385 32.3421C24.385 34.9905 24.3625 37.1224 24.3625 37.7747C24.3625 38.3015 24.7128 38.9188 25.6994 38.7244C33.4289 36.1038 38.9988 28.6859 38.9988 19.9422C38.9988 9.00867 30.2844 0.145996 19.5352 0.145996" fill="black"/>
<path d="M7.44327 28.569C7.4004 28.6677 7.24827 28.6969 7.10967 28.6293C6.9685 28.5648 6.88921 28.4307 6.93498 28.332C6.97688 28.2307 7.12933 28.2028 7.27018 28.27C7.41168 28.335 7.49226 28.4703 7.44327 28.569" fill="black"/>
<path d="M8.23158 29.4635C8.13876 29.551 7.95729 29.5103 7.83417 29.372C7.70686 29.234 7.683 29.0494 7.77712 28.9606C7.87285 28.8731 8.04883 28.914 8.17647 29.0521C8.30378 29.1917 8.3286 29.375 8.23158 29.4635" fill="black"/>
<path d="M8.99902 30.6034C8.87977 30.6877 8.68477 30.6087 8.56422 30.4326C8.44496 30.2566 8.44496 30.0455 8.5668 29.9609C8.68767 29.8763 8.87977 29.9524 9.00192 30.1271C9.12086 30.3058 9.12086 30.5172 8.99902 30.6034" fill="black"/>
<path d="M10.0505 31.7051C9.94381 31.8248 9.71657 31.7927 9.55026 31.6294C9.38008 31.4698 9.3327 31.2432 9.43971 31.1236C9.54768 31.0036 9.7762 31.0374 9.94381 31.1993C10.1127 31.3586 10.1643 31.5868 10.0505 31.7051" fill="black"/>
<path d="M11.5008 32.3445C11.4538 32.4996 11.2349 32.57 11.0144 32.5041C10.7943 32.4363 10.6502 32.2547 10.6947 32.098C10.7405 31.9419 10.9603 31.8685 11.1824 31.939C11.4022 32.0065 11.5466 32.1868 11.5008 32.3445" fill="black"/>
<path d="M13.0937 32.4632C13.0992 32.6265 12.9123 32.7619 12.6808 32.7645C12.4481 32.7701 12.2599 32.638 12.2573 32.4773C12.2573 32.3124 12.4401 32.1784 12.6728 32.1744C12.9042 32.1698 13.0937 32.301 13.0937 32.4632" fill="black"/>
<path d="M14.5761 32.2068C14.6038 32.3661 14.443 32.5297 14.2132 32.573C13.9872 32.6153 13.778 32.5169 13.7493 32.3589C13.7213 32.1957 13.885 32.0321 14.1107 31.9898C14.3408 31.9492 14.5467 32.0449 14.5761 32.2068" fill="black"/>
</svg>
