<svg width="39" height="39" viewBox="0 0 39 39" fill="none" xmlns="http://www.w3.org/2000/svg">
<path d="M19.5 0C30.2696 0 39 8.73045 39 19.5C39 30.2696 30.2696 39 19.5 39C8.73045 39 0 30.2696 0 19.5C0 8.73045 8.73045 0 19.5 0ZM19.8252 9.09961C13.1952 9.09961 7.7998 13.4461 7.7998 18.7881C7.79983 23.5771 12.0779 27.5882 17.8564 28.3467C18.248 28.4304 18.7809 28.6025 18.916 28.9346C19.0373 29.2364 18.9956 29.7098 18.9551 30.0146C18.953 30.0272 18.8135 30.8577 18.7832 31.0361C18.7309 31.338 18.5421 32.2166 19.8252 31.6797C21.1093 31.1423 26.7497 27.6316 29.2725 24.749C31.0152 22.8518 31.8496 20.9261 31.8496 18.7881C31.8496 13.4462 26.456 9.09975 19.8252 9.09961Z" fill="black"/>
<path d="M17.318 16.25H16.4823C16.3541 16.25 16.25 16.3575 16.25 16.4896V21.8604C16.25 21.9927 16.3541 22.1 16.4823 22.1H17.318C17.4461 22.1 17.55 21.9927 17.55 21.8604V16.4896C17.55 16.3575 17.4461 16.25 17.318 16.25" fill="black"/>
<path d="M23.1557 16.25H22.2759C22.1411 16.25 22.0317 16.3575 22.0317 16.4896V19.6804L19.5274 16.3566C19.5216 16.3481 19.5151 16.34 19.5084 16.3322L19.5067 16.3308C19.5019 16.3254 19.4971 16.3206 19.492 16.3159C19.4906 16.3145 19.4891 16.3133 19.4874 16.3119C19.4834 16.3081 19.479 16.3046 19.4745 16.3013C19.4725 16.2994 19.4704 16.298 19.4682 16.2963C19.4639 16.2935 19.4598 16.2904 19.4555 16.2878C19.4531 16.2862 19.4507 16.2847 19.448 16.2836C19.4437 16.281 19.4394 16.2784 19.435 16.2762C19.4324 16.275 19.43 16.2736 19.4273 16.2727C19.4228 16.2706 19.4182 16.2684 19.4134 16.2668C19.4105 16.2658 19.4081 16.2649 19.4055 16.2639C19.4007 16.2623 19.3958 16.2606 19.3908 16.2595C19.3882 16.2585 19.3853 16.258 19.3824 16.2571C19.3776 16.2561 19.373 16.255 19.3684 16.254C19.3651 16.2535 19.3615 16.2531 19.3581 16.2528C19.3538 16.2519 19.3494 16.2517 19.3451 16.2512C19.341 16.2507 19.3369 16.2507 19.3326 16.2505C19.3295 16.2505 19.3271 16.25 19.324 16.25H18.4445C18.3096 16.25 18.2 16.3575 18.2 16.4896V21.8604C18.2 21.9927 18.3096 22.1 18.4445 22.1H19.324C19.4591 22.1 19.5685 21.9927 19.5685 21.8604V18.6705L22.0759 21.9986C22.0932 22.0227 22.1146 22.0423 22.1379 22.0579C22.1387 22.0584 22.1396 22.0591 22.1403 22.0598C22.1454 22.0629 22.1504 22.066 22.1555 22.0688C22.1579 22.0702 22.1601 22.0712 22.1625 22.0724C22.1661 22.0745 22.1702 22.0764 22.174 22.078C22.1781 22.0797 22.1817 22.0813 22.186 22.083C22.1884 22.0839 22.1908 22.0849 22.1932 22.0856C22.199 22.0877 22.2043 22.0894 22.2098 22.091C22.211 22.091 22.2122 22.0915 22.2134 22.0917C22.2334 22.0969 22.2543 22.1 22.2759 22.1H23.1557C23.2908 22.1 23.4 21.9927 23.4 21.8604V16.4896C23.4 16.3575 23.2908 16.25 23.1557 16.25" fill="black"/>
<path d="M15.3624 20.7551H13.0332V16.4901C13.0332 16.3575 12.9266 16.25 12.7954 16.25H11.938C11.8065 16.25 11.7 16.3575 11.7 16.4901V21.8597V21.8602C11.7 21.9247 11.7255 21.983 11.7665 22.026C11.7674 22.0272 11.7684 22.0284 11.7698 22.0296C11.7709 22.0308 11.7721 22.0317 11.7733 22.0329C11.8162 22.0745 11.8738 22.1 11.9377 22.1H15.3624C15.4938 22.1 15.6 21.9923 15.6 21.8597V20.9952C15.6 20.8626 15.4938 20.7551 15.3624 20.7551" fill="black"/>
<path d="M27.7125 17.5949C27.8439 17.5949 27.95 17.4876 27.95 17.3548V16.4903C27.95 16.3577 27.8439 16.25 27.7125 16.25H24.2881H24.2876C24.2234 16.25 24.1655 16.276 24.1227 16.3178C24.1217 16.3188 24.1206 16.3195 24.1199 16.3204C24.1185 16.3218 24.1173 16.3232 24.1161 16.3247C24.0754 16.3677 24.05 16.4258 24.05 16.4901V16.4903V21.8599V21.8602C24.05 21.9247 24.0756 21.983 24.1166 22.026C24.1175 22.0272 24.1187 22.0286 24.1199 22.0296C24.1208 22.0308 24.1222 22.032 24.1234 22.0329C24.166 22.0742 24.2239 22.1 24.2876 22.1H27.7125C27.8439 22.1 27.95 21.9923 27.95 21.8599V20.9952C27.95 20.8628 27.8439 20.7551 27.7125 20.7551H25.3836V19.8473H27.7125C27.8439 19.8473 27.95 19.7398 27.95 19.6073V18.7427C27.95 18.6102 27.8439 18.5024 27.7125 18.5024H25.3836V17.5949H27.7125Z" fill="black"/>
</svg>
