<svg width="39" height="39" viewBox="0 0 39 39" fill="none" xmlns="http://www.w3.org/2000/svg">
<path d="M19.5 0C30.2696 0 39 8.73045 39 19.5C39 30.2696 30.2696 39 19.5 39C8.73045 39 0 30.2696 0 19.5C0 8.73045 8.73045 0 19.5 0ZM9.36133 29.4287H13.7803V16.1504H9.36133V29.4287ZM24.6299 15.8389C22.2836 15.8389 21.233 17.1282 20.6465 18.0322V16.1514H16.2266C16.2847 17.3975 16.2267 29.4055 16.2266 29.4287H20.6465V22.0137C20.6465 21.6168 20.6751 21.2206 20.792 20.9365C21.1114 20.1438 21.8388 19.3232 23.0596 19.3232C24.659 19.3235 25.2988 20.5411 25.2988 22.3252V29.4287H29.7178V21.8154C29.7178 17.7373 27.5376 15.8391 24.6299 15.8389ZM11.5996 9.75C10.0883 9.75021 9.09985 10.7415 9.09961 12.043C9.09961 13.3179 10.0594 14.3389 11.543 14.3389H11.5713C13.112 14.3387 14.0713 13.3178 14.0713 12.043C14.0424 10.7413 13.1112 9.75 11.5996 9.75Z" fill="black"/>
</svg>
