<svg width="39" height="39" viewBox="0 0 39 39" fill="none" xmlns="http://www.w3.org/2000/svg">
<circle cx="19.5" cy="19.5" r="19.5" fill="black"/>
<path d="M28.275 10.3999H10.725C9.94929 10.3999 9.2053 10.7096 8.65676 11.2608C8.10822 11.8119 7.80005 12.5595 7.80005 13.339V24.3608C7.80005 25.1403 8.10822 25.8879 8.65676 26.4391C9.2053 26.9902 9.94929 27.2999 10.725 27.2999H28.275C29.0508 27.2999 29.7948 26.9902 30.3433 26.4391C30.8919 25.8879 31.2 25.1403 31.2 24.3608V13.339C31.2 12.5595 30.8919 11.8119 30.3433 11.2608C29.7948 10.7096 29.0508 10.3999 28.275 10.3999ZM28.0045 15.3744L19.9607 21.9874C19.8305 22.0936 19.6678 22.1516 19.5 22.1516C19.3323 22.1516 19.1696 22.0936 19.0394 21.9874L10.9956 15.3744C10.9103 15.3177 10.8378 15.2436 10.7828 15.157C10.7278 15.0704 10.6914 14.9732 10.6761 14.8716C10.6608 14.77 10.6669 14.6663 10.6939 14.5672C10.721 14.4681 10.7684 14.3758 10.8332 14.2963C10.8979 14.2168 10.9786 14.1518 11.0699 14.1055C11.1612 14.0593 11.2611 14.0328 11.3633 14.0277C11.4654 14.0227 11.5674 14.0392 11.6628 14.0763C11.7582 14.1133 11.8448 14.1701 11.917 14.2428L19.5 20.4738L27.0831 14.2428C27.2342 14.1424 27.417 14.1018 27.5961 14.1291C27.7752 14.1563 27.9379 14.2494 28.0526 14.3903C28.1673 14.5312 28.2259 14.7098 28.217 14.8916C28.2081 15.0734 28.1324 15.2455 28.0045 15.3744Z" fill="white"/>
</svg>
